<?xml version="1.0" encoding="utf-8"?>
<!-- Generator: Adobe Illustrator 25.2.1, SVG Export Plug-In . SVG Version: 6.00 Build 0)  -->
<svg version="1.1" id="RynLogo" xmlns="http://www.w3.org/2000/svg" xmlns:xlink="http://www.w3.org/1999/xlink" x="0px" y="0px"
	 viewBox="0 0 64 64" style="enable-background:new 0 0 64 64;" xml:space="preserve">
<style type="text/css">
	.st0{fill:none;}
	.st1{fill:#373152;}
	.st2{fill:url(#SVGID_1_);}
</style>
<rect x="-0.78" y="-0.25" class="st0" width="64" height="64"/>
<g>
	<rect class="st0" width="64" height="64"/>
	<g>
		<g>
			<path class="st1" d="M20.62,22.59l-0.18-0.18c-0.25-0.25-0.25-0.66,0-0.91L35.16,6.79c0.25-0.25,0.66-0.25,0.91,0l0.18,0.18
				c0.25,0.25,0.25,0.66,0,0.91L21.52,22.59C21.27,22.84,20.87,22.84,20.62,22.59z"/>
			<path class="st1" d="M8.65,34.56l-0.18-0.18c-0.25-0.25-0.25-0.66,0-0.91l8.84-8.84c0.25-0.25,0.66-0.25,0.91,0l0.18,0.18
				c0.25,0.25,0.25,0.66,0,0.91l-8.84,8.84C9.3,34.81,8.9,34.81,8.65,34.56z"/>
		</g>
		<g>
			<path class="st1" d="M25.05,32.05l-0.18-0.18c-0.25-0.25-0.25-0.66,0-0.91l11.99-11.99c0.25-0.25,0.66-0.25,0.91,0l0.18,0.18
				c0.25,0.25,0.25,0.66,0,0.91L25.96,32.05C25.71,32.3,25.3,32.3,25.05,32.05z"/>
			<path class="st1" d="M9.18,47.93L9,47.75c-0.25-0.25-0.25-0.66,0-0.91L21,34.85c0.25-0.25,0.66-0.25,0.91,0l0.18,0.18
				c0.25,0.25,0.25,0.66,0,0.91L10.08,47.93C9.83,48.18,9.43,48.18,9.18,47.93z"/>
			<path class="st1" d="M41.2,15.91l-0.18-0.18c-0.25-0.25-0.25-0.66,0-0.91l5.77-5.77c0.25-0.25,0.66-0.25,0.91,0l0.18,0.18
				c0.25,0.25,0.25,0.66,0,0.91l-5.77,5.77C41.85,16.16,41.45,16.16,41.2,15.91z"/>
		</g>
		<g>
			<path class="st1" d="M43.41,27.62l-0.18-0.18c-0.25-0.25-0.25-0.66,0-0.91l5.33-5.33c0.25-0.25,0.66-0.25,0.91,0l0.18,0.18
				c0.25,0.25,0.25,0.66,0,0.91l-5.33,5.33C44.07,27.87,43.66,27.87,43.41,27.62z"/>
			<path class="st1" d="M15.07,55.97l-0.18-0.18c-0.25-0.25-0.25-0.66,0-0.91l23.36-23.36c0.25-0.25,0.66-0.25,0.91,0l0.17,0.17
				c0.25,0.25,0.25,0.66,0,0.91L15.97,55.97C15.72,56.22,15.32,56.22,15.07,55.97z"/>
		</g>
		<g>
			<path class="st1" d="M25.64,59.31l-0.18-0.18c-0.25-0.25-0.25-0.66,0-0.91l14.05-14.05c0.25-0.25,0.66-0.25,0.91,0l0.17,0.17
				c0.25,0.25,0.25,0.66,0,0.91L26.55,59.31C26.3,59.56,25.89,59.56,25.64,59.31z"/>
			<path class="st1" d="M43.25,41.7l-0.18-0.18c-0.25-0.25-0.25-0.66,0-0.91l4.19-4.19c0.25-0.25,0.66-0.25,0.91,0l0.18,0.18
				c0.25,0.25,0.25,0.66,0,0.91l-4.19,4.19C43.91,41.95,43.5,41.95,43.25,41.7z"/>
		</g>
		<g>
			<path class="st1" d="M40.14,58.7l-0.18-0.18c-0.25-0.25-0.25-0.66,0-0.91l4.19-4.19c0.25-0.25,0.66-0.25,0.91,0l0.18,0.18
				c0.25,0.25,0.25,0.66,0,0.91l-4.19,4.19C40.8,58.95,40.39,58.95,40.14,58.7z"/>
			<path class="st1" d="M48.4,50.44l-0.18-0.18c-0.25-0.25-0.25-0.66,0-0.91l4.19-4.19c0.25-0.25,0.66-0.25,0.91,0l0.18,0.18
				c0.25,0.25,0.25,0.66,0,0.91l-4.19,4.19C49.06,50.69,48.65,50.69,48.4,50.44z"/>
		</g>
		<g>
			<path class="st1" d="M16.77,12.52l-0.18-0.18c-0.25-0.25-0.25-0.66,0-0.91l8.84-8.84c0.25-0.25,0.66-0.25,0.91,0l0.18,0.18
				c0.25,0.25,0.25,0.66,0,0.91l-8.84,8.84C17.43,12.77,17.02,12.77,16.77,12.52z"/>
		</g>
	</g>
	
		<linearGradient id="SVGID_1_" gradientUnits="userSpaceOnUse" x1="7.5016" y1="30.7891" x2="57.5816" y2="30.7891" gradientTransform="matrix(1 0 0 1 -0.5016 1.2109)">
		<stop  offset="0" style="stop-color:#FF2C55"/>
		<stop  offset="1" style="stop-color:#FD4E4B"/>
	</linearGradient>
	<path class="st2" d="M55.32,8.68L55.32,8.68l-3-3l-0.49-0.49l-3.46-3.47l0,0L46.65,0H7v64h50V42.19l-3.7-3.7L50.82,36L57,29.75
		V10.4L55.32,8.68z M48.7,26.3L39,36l4.94,5l0.49,0.49l3,3l0,0l1.26,1.26v10H15.3V8.35h27.89l2.16,2.16l3.35,3.34
		C48.7,13.85,48.7,26.3,48.7,26.3z"/>
</g>
</svg>
